# xmcd
#
# Track frame offsets:
#	150
#	16996
#	39243
#	52364
#	66870
#	79576
#	104241
#	128408
#	159794
#	174343
#	193139
#	207598
#	223768
#	242085
#	252589
#	271693
#	309983
#	326531
#
# Disc length: 4498 seconds
#
# Revision: 1
# Processed by: cddbd v1.5.2PL0 Copyright (c) Steve Scherf et al.
# Submitted via: EZCDAudioConverter 1.3.4.1
#
DISCID=00119012
DTITLE=V/A - Cave Of Clear Light 1/3
DYEAR=2010
DGENRE=
TTITLE0=The Bystanders - Cave Of Clear Light
TTITLE1=Donovan - Season Of The Witch
TTITLE2=Episode Six - Morning Dew
TTITLE3=Status Quo - Paradise Flat
TTITLE4=Neo Maya - UFO
TTITLE5=Man - The Future Hides Its Face
TTITLE6=Blonde On Blonde - Ride With Captain Max
TTITLE7=Velvett Fogg - Yellow Cave Women
TTITLE8=Donovan - Hurdy Gurdy Man
TTITLE9=Woody Kern - Tell You I'm Gone
TTITLE10=The Mooche - Hot Smoke And Sassafras
TTITLE11=Blonde On Blonde - All Day, All Night
TTITLE12=Status Quo - Mister Mind Detector
TTITLE13=Pesky Gee - Peace Of Mind
TTITLE14=John Kongos - Confusions About A Goldfish
TTITLE15=Man - It Is As It Must Be
TTITLE16=Fire - Flies Like A Bird
TTITLE17=Trader Horne - Velvet To Atone
EXTD=
EXTT0=
EXTT1=
EXTT2=
EXTT3=
EXTT4=
EXTT5=
EXTT6=
EXTT7=
EXTT8=
EXTT9=
EXTT10=
EXTT11=
EXTT12=
EXTT13=
EXTT14=
EXTT15=
EXTT16=
EXTT17=
PLAYORDER=
